<svg width="36" height="36" viewBox="0 0 36 36" fill="none" xmlns="http://www.w3.org/2000/svg">
<path d="M3 3.27686H5.61001C7.23001 3.27686 8.505 4.64724 8.37 6.22391L7.125 20.9003C6.915 23.3021 8.84999 25.365 11.31 25.365H27.285C29.445 25.365 31.335 23.6263 31.5 21.5192L32.31 10.4677C32.49 8.02163 30.6 6.03235 28.095 6.03235H8.73001" stroke="white" stroke-width="1.5" stroke-miterlimit="10" stroke-linecap="round" stroke-linejoin="round"/>
<path d="M24.375 32.7473C25.4105 32.7473 26.25 31.9226 26.25 30.9054C26.25 29.8881 25.4105 29.0635 24.375 29.0635C23.3395 29.0635 22.5 29.8881 22.5 30.9054C22.5 31.9226 23.3395 32.7473 24.375 32.7473Z" stroke="white" stroke-width="1.5" stroke-miterlimit="10" stroke-linecap="round" stroke-linejoin="round"/>
<path d="M12.375 32.7473C13.4105 32.7473 14.25 31.9226 14.25 30.9054C14.25 29.8881 13.4105 29.0635 12.375 29.0635C11.3395 29.0635 10.5 29.8881 10.5 30.9054C10.5 31.9226 11.3395 32.7473 12.375 32.7473Z" stroke="white" stroke-width="1.5" stroke-miterlimit="10" stroke-linecap="round" stroke-linejoin="round"/>
<path d="M13.5 12.1177H31.5" stroke="white" stroke-width="1.5" stroke-miterlimit="10" stroke-linecap="round" stroke-linejoin="round"/>
</svg>
