<svg width="43" height="26" viewBox="0 0 43 26" fill="none" xmlns="http://www.w3.org/2000/svg">
<path d="M1.05 10C0.891333 10 0.812 9.902 0.812 9.706C0.812 9.58467 0.858667 9.49133 0.952 9.426C1.04533 9.35133 1.17133 9.314 1.33 9.314H1.764V0.956H1.05C0.891333 0.956 0.812 0.857999 0.812 0.661999C0.812 0.540666 0.854 0.447333 0.938 0.381999C1.03133 0.307333 1.15733 0.269999 1.316 0.269999H3.808C3.92 0.269999 3.976 0.330666 3.976 0.451999C3.976 0.545333 3.94333 0.619999 3.878 0.676C3.822 0.722667 3.724 0.764667 3.584 0.802L2.884 0.969999V4.568H8.274V0.956H7.49C7.33133 0.956 7.252 0.857999 7.252 0.661999C7.252 0.540666 7.294 0.447333 7.378 0.381999C7.47133 0.307333 7.59733 0.269999 7.756 0.269999H10.248C10.3507 0.269999 10.402 0.330666 10.402 0.451999C10.402 0.545333 10.374 0.619999 10.318 0.676C10.2713 0.722667 10.1873 0.76 10.066 0.787999L9.394 0.969999V9.3L10.066 9.482C10.29 9.538 10.402 9.65 10.402 9.818C10.402 9.93933 10.3507 10 10.248 10H7.49C7.33133 10 7.252 9.902 7.252 9.706C7.252 9.58467 7.294 9.49133 7.378 9.426C7.47133 9.35133 7.59733 9.314 7.756 9.314H8.274V5.324H2.884V9.3L3.584 9.468C3.724 9.50533 3.822 9.552 3.878 9.608C3.94333 9.65467 3.976 9.72467 3.976 9.818C3.976 9.93933 3.92 10 3.808 10H1.05ZM13.9689 10.168C13.3809 10.168 12.8769 10 12.4569 9.664C12.0369 9.328 11.8269 8.85667 11.8269 8.25C11.8269 7.59667 12.0603 7.11133 12.5269 6.794C12.9936 6.46733 13.6096 6.248 14.3749 6.136L16.3489 5.842V5.226C16.3489 4.76867 16.2089 4.4 15.9289 4.12C15.6489 3.84 15.2569 3.7 14.7529 3.7C14.4636 3.7 14.1369 3.75133 13.7729 3.854C13.4183 3.95667 13.1243 4.08267 12.8909 4.232L12.7789 4.848C12.7323 5.11867 12.6109 5.254 12.4149 5.254C12.3496 5.254 12.2983 5.24 12.2609 5.212C12.2236 5.17467 12.2049 5.128 12.2049 5.072V3.798C12.5783 3.574 13.0076 3.38733 13.4929 3.238C13.9876 3.08867 14.4589 3.014 14.9069 3.014C15.6349 3.014 16.2323 3.21 16.6989 3.602C17.1656 3.994 17.3989 4.54 17.3989 5.24V9.356L17.9169 9.496C18.0476 9.53333 18.1409 9.58 18.1969 9.636C18.2623 9.68267 18.2949 9.748 18.2949 9.832C18.2949 9.944 18.2436 10 18.1409 10H16.3769V9.02H16.3209C16.0689 9.36533 15.7423 9.64533 15.3409 9.86C14.9396 10.0653 14.4823 10.168 13.9689 10.168ZM14.2909 9.454C14.6363 9.454 14.9676 9.37467 15.2849 9.216C15.6023 9.048 15.8589 8.824 16.0549 8.544C16.2509 8.264 16.3489 7.956 16.3489 7.62V6.5L14.6129 6.78C14.0623 6.87333 13.6376 7.032 13.3389 7.256C13.0403 7.47067 12.8909 7.78333 12.8909 8.194C12.8909 8.60467 13.0216 8.91733 13.2829 9.132C13.5443 9.34667 13.8803 9.454 14.2909 9.454ZM19.5034 10C19.3541 10 19.2794 9.90667 19.2794 9.72C19.2794 9.59867 19.3214 9.50533 19.4054 9.44C19.4988 9.37467 19.6201 9.342 19.7694 9.342H20.2034V3.812H19.5034C19.3541 3.812 19.2794 3.71867 19.2794 3.532C19.2794 3.40133 19.3214 3.308 19.4054 3.252C19.4988 3.18667 19.6201 3.154 19.7694 3.154H21.1974V4.134H21.2394C22.0328 3.38733 22.8494 3.014 23.6894 3.014C24.3521 3.014 24.8981 3.21 25.3274 3.602C25.7568 3.98467 25.9714 4.50733 25.9714 5.17V9.342L26.6434 9.496C26.8954 9.552 27.0214 9.664 27.0214 9.832C27.0214 9.944 26.9654 10 26.8534 10H24.2214C24.0721 10 23.9974 9.90667 23.9974 9.72C23.9974 9.59867 24.0394 9.50533 24.1234 9.44C24.2168 9.37467 24.3381 9.342 24.4874 9.342H24.9214V5.254C24.9214 4.79667 24.7861 4.43267 24.5154 4.162C24.2541 3.882 23.8761 3.742 23.3814 3.742C23.0174 3.742 22.6488 3.84467 22.2754 4.05C21.9021 4.246 21.5614 4.51667 21.2534 4.862V9.342L21.9254 9.496C22.0561 9.524 22.1494 9.566 22.2054 9.622C22.2708 9.66867 22.3034 9.73867 22.3034 9.832C22.3034 9.944 22.2474 10 22.1354 10H19.5034ZM30.9698 10.168C30.4004 10.168 29.8824 10.042 29.4158 9.79C28.9491 9.52867 28.5758 9.13667 28.2958 8.614C28.0251 8.082 27.8898 7.424 27.8898 6.64C27.8898 5.912 28.0251 5.27267 28.2958 4.722C28.5758 4.17133 28.9584 3.75133 29.4438 3.462C29.9291 3.16333 30.4798 3.014 31.0958 3.014C31.8331 3.014 32.5238 3.22867 33.1678 3.658V0.717999H32.4678C32.3184 0.717999 32.2438 0.624666 32.2438 0.438C32.2438 0.186 32.4071 0.0599995 32.7338 0.0599995H34.1898V9.342L34.7498 9.496C34.8804 9.53333 34.9738 9.58 35.0298 9.636C35.0951 9.68267 35.1278 9.748 35.1278 9.832C35.1278 9.944 35.0764 10 34.9738 10H33.2098V9.048H33.1538C32.9298 9.384 32.6358 9.65467 32.2718 9.86C31.9171 10.0653 31.4831 10.168 30.9698 10.168ZM31.2218 9.482C31.7538 9.482 32.2064 9.30933 32.5798 8.964C32.9624 8.60933 33.1538 8.16133 33.1538 7.62V4.414C32.6031 3.938 31.9824 3.7 31.2918 3.7C30.8531 3.7 30.4564 3.812 30.1018 4.036C29.7564 4.26 29.4764 4.59133 29.2618 5.03C29.0564 5.46867 28.9538 6.00533 28.9538 6.64C28.9538 7.536 29.1451 8.236 29.5278 8.74C29.9198 9.23467 30.4844 9.482 31.2218 9.482ZM36.5871 13.15C36.4098 13.15 36.2605 13.1033 36.1391 13.01C36.0271 12.9167 35.9711 12.786 35.9711 12.618C35.9711 12.4873 36.0038 12.3613 36.0691 12.24C36.7318 12.24 37.2498 12.1187 37.6231 11.876C37.9965 11.6333 38.2998 11.2087 38.5331 10.602L38.7571 10L36.2651 3.812H35.6911C35.5418 3.812 35.4671 3.71867 35.4671 3.532C35.4671 3.40133 35.5091 3.308 35.5931 3.252C35.6865 3.18667 35.8078 3.154 35.9571 3.154H38.3231C38.4351 3.154 38.4911 3.21 38.4911 3.322C38.4911 3.406 38.4538 3.48067 38.3791 3.546C38.3138 3.602 38.2251 3.63933 38.1131 3.658L37.3711 3.826L39.2191 8.53C39.2471 8.59533 39.2611 8.67933 39.2611 8.782C39.2705 8.87533 39.2751 8.936 39.2751 8.964H39.3311C39.3311 8.936 39.3358 8.87067 39.3451 8.768C39.3545 8.66533 39.3685 8.586 39.3871 8.53L41.2211 3.812H40.3531C40.2038 3.812 40.1291 3.71867 40.1291 3.532C40.1291 3.28 40.2925 3.154 40.6191 3.154H42.8171C42.9198 3.154 42.9711 3.21 42.9711 3.322C42.9711 3.47133 42.8451 3.58333 42.5931 3.658L42.0191 3.826L39.3871 10.588C39.0885 11.344 38.7058 11.96 38.2391 12.436C37.7725 12.912 37.2218 13.15 36.5871 13.15ZM1.05 25C0.891333 25 0.812 24.902 0.812 24.706C0.812 24.5847 0.858667 24.4913 0.952 24.426C1.04533 24.3513 1.17133 24.314 1.33 24.314H1.764V15.956H1.05C0.891333 15.956 0.812 15.858 0.812 15.662C0.812 15.5407 0.854 15.4473 0.938 15.382C1.03133 15.3073 1.15733 15.27 1.316 15.27H3.808C3.92 15.27 3.976 15.3307 3.976 15.452C3.976 15.5453 3.94333 15.62 3.878 15.676C3.822 15.7227 3.724 15.7647 3.584 15.802L2.884 15.97V19.568H8.274V15.956H7.49C7.33133 15.956 7.252 15.858 7.252 15.662C7.252 15.5407 7.294 15.4473 7.378 15.382C7.47133 15.3073 7.59733 15.27 7.756 15.27H10.248C10.3507 15.27 10.402 15.3307 10.402 15.452C10.402 15.5453 10.374 15.62 10.318 15.676C10.2713 15.7227 10.1873 15.76 10.066 15.788L9.394 15.97V24.3L10.066 24.482C10.29 24.538 10.402 24.65 10.402 24.818C10.402 24.9393 10.3507 25 10.248 25H7.49C7.33133 25 7.252 24.902 7.252 24.706C7.252 24.5847 7.294 24.4913 7.378 24.426C7.47133 24.3513 7.59733 24.314 7.756 24.314H8.274V20.324H2.884V24.3L3.584 24.468C3.724 24.5053 3.822 24.552 3.878 24.608C3.94333 24.6547 3.976 24.7247 3.976 24.818C3.976 24.9393 3.92 25 3.808 25H1.05ZM13.9689 25.168C13.3809 25.168 12.8769 25 12.4569 24.664C12.0369 24.328 11.8269 23.8567 11.8269 23.25C11.8269 22.5967 12.0603 22.1113 12.5269 21.794C12.9936 21.4673 13.6096 21.248 14.3749 21.136L16.3489 20.842V20.226C16.3489 19.7687 16.2089 19.4 15.9289 19.12C15.6489 18.84 15.2569 18.7 14.7529 18.7C14.4636 18.7 14.1369 18.7513 13.7729 18.854C13.4183 18.9567 13.1243 19.0827 12.8909 19.232L12.7789 19.848C12.7323 20.1187 12.6109 20.254 12.4149 20.254C12.3496 20.254 12.2983 20.24 12.2609 20.212C12.2236 20.1747 12.2049 20.128 12.2049 20.072V18.798C12.5783 18.574 13.0076 18.3873 13.4929 18.238C13.9876 18.0887 14.4589 18.014 14.9069 18.014C15.6349 18.014 16.2323 18.21 16.6989 18.602C17.1656 18.994 17.3989 19.54 17.3989 20.24V24.356L17.9169 24.496C18.0476 24.5333 18.1409 24.58 18.1969 24.636C18.2623 24.6827 18.2949 24.748 18.2949 24.832C18.2949 24.944 18.2436 25 18.1409 25H16.3769V24.02H16.3209C16.0689 24.3653 15.7423 24.6453 15.3409 24.86C14.9396 25.0653 14.4823 25.168 13.9689 25.168ZM14.2909 24.454C14.6363 24.454 14.9676 24.3747 15.2849 24.216C15.6023 24.048 15.8589 23.824 16.0549 23.544C16.2509 23.264 16.3489 22.956 16.3489 22.62V21.5L14.6129 21.78C14.0623 21.8733 13.6376 22.032 13.3389 22.256C13.0403 22.4707 12.8909 22.7833 12.8909 23.194C12.8909 23.6047 13.0216 23.9173 13.2829 24.132C13.5443 24.3467 13.8803 24.454 14.2909 24.454ZM19.243 18.812H18.669C18.5197 18.812 18.445 18.7187 18.445 18.532C18.445 18.4013 18.487 18.308 18.571 18.252C18.6643 18.1867 18.7857 18.154 18.935 18.154H21.301C21.413 18.154 21.469 18.21 21.469 18.322C21.469 18.406 21.4317 18.4807 21.357 18.546C21.2917 18.602 21.203 18.6393 21.091 18.658L20.349 18.826L22.113 23.95C22.1503 24.0433 22.1783 24.1507 22.197 24.272C22.225 24.3933 22.2437 24.4727 22.253 24.51H22.309C22.309 24.4727 22.3183 24.3933 22.337 24.272C22.365 24.1507 22.3977 24.0433 22.435 23.95L24.255 18.812H23.387C23.2377 18.812 23.163 18.7187 23.163 18.532C23.163 18.4013 23.205 18.308 23.289 18.252C23.3823 18.1867 23.5037 18.154 23.653 18.154H25.851C25.9537 18.154 26.005 18.21 26.005 18.322C26.005 18.4807 25.8837 18.5927 25.641 18.658L25.053 18.826L22.855 25H21.441L19.243 18.812ZM29.9923 25.168C29.3296 25.168 28.7463 25.028 28.2423 24.748C27.7383 24.4587 27.3463 24.048 27.0663 23.516C26.7863 22.984 26.6463 22.3587 26.6463 21.64C26.6463 20.5293 26.9356 19.6473 27.5143 18.994C28.0929 18.3407 28.8816 18.014 29.8803 18.014C30.7856 18.014 31.4996 18.28 32.0223 18.812C32.5449 19.344 32.8063 20.0533 32.8063 20.94C32.8063 21.2293 32.7456 21.5233 32.6243 21.822H27.7103C27.7103 22.6807 27.9296 23.3387 28.3683 23.796C28.8069 24.2533 29.3623 24.482 30.0343 24.482C30.3889 24.482 30.7063 24.44 30.9863 24.356C31.2756 24.2627 31.5603 24.118 31.8403 23.922C31.8589 23.9127 31.8963 23.8893 31.9523 23.852C32.0176 23.8147 32.0783 23.796 32.1343 23.796C32.2183 23.796 32.2883 23.8287 32.3443 23.894C32.4003 23.9593 32.4283 24.0387 32.4283 24.132C32.4283 24.3 32.2836 24.4727 31.9943 24.65C31.4156 24.9953 30.7483 25.168 29.9923 25.168ZM31.6863 21.122C31.7236 21.038 31.7423 20.9073 31.7423 20.73C31.7423 20.086 31.5696 19.5867 31.2243 19.232C30.8789 18.8773 30.4216 18.7 29.8523 18.7C29.2549 18.7 28.7603 18.9193 28.3683 19.358C27.9763 19.7873 27.7569 20.3753 27.7103 21.122H31.6863ZM34.0913 25C33.942 25 33.8673 24.9067 33.8673 24.72C33.8673 24.5987 33.9093 24.5053 33.9933 24.44C34.0866 24.3747 34.208 24.342 34.3573 24.342H34.7913V18.812H34.0913C33.942 18.812 33.8673 18.7187 33.8673 18.532C33.8673 18.4013 33.9093 18.308 33.9933 18.252C34.0866 18.1867 34.208 18.154 34.3573 18.154H35.7853V19.134H35.8273C36.6206 18.3873 37.4373 18.014 38.2773 18.014C38.94 18.014 39.486 18.21 39.9153 18.602C40.3446 18.9847 40.5593 19.5073 40.5593 20.17V24.342L41.2313 24.496C41.4833 24.552 41.6093 24.664 41.6093 24.832C41.6093 24.944 41.5533 25 41.4413 25H38.8093C38.66 25 38.5853 24.9067 38.5853 24.72C38.5853 24.5987 38.6273 24.5053 38.7113 24.44C38.8046 24.3747 38.926 24.342 39.0753 24.342H39.5093V20.254C39.5093 19.7967 39.374 19.4327 39.1033 19.162C38.842 18.882 38.464 18.742 37.9693 18.742C37.6053 18.742 37.2366 18.8447 36.8633 19.05C36.49 19.246 36.1493 19.5167 35.8413 19.862V24.342L36.5133 24.496C36.644 24.524 36.7373 24.566 36.7933 24.622C36.8586 24.6687 36.8913 24.7387 36.8913 24.832C36.8913 24.944 36.8353 25 36.7233 25H34.0913Z" fill="white"/>
</svg>
